<mxfile host="app.diagrams.net" agent="Mozilla/5.0 (Windows NT 10.0; Win64; x64) AppleWebKit/537.36 (KHTML, like Gecko) Chrome/131.0.0.0 Safari/537.36" version="24.8.6">
  <diagram name="Page-1" id="i3pka0XmYB0xVBQVX4w2">
    <mxGraphModel dx="1050" dy="522" grid="1" gridSize="10" guides="1" tooltips="1" connect="1" arrows="1" fold="1" page="1" pageScale="1" pageWidth="850" pageHeight="1100" math="0" shadow="0">
      <root>
        <mxCell id="0" />
        <mxCell id="1" parent="0" />
        <mxCell id="Mvcqlc6Q-T56LPLJn-04-8" value="" style="edgeStyle=orthogonalEdgeStyle;rounded=0;orthogonalLoop=1;jettySize=auto;html=1;entryX=0.5;entryY=1;entryDx=0;entryDy=0;" parent="1" source="Mvcqlc6Q-T56LPLJn-04-4" target="Mvcqlc6Q-T56LPLJn-04-5" edge="1">
          <mxGeometry relative="1" as="geometry">
            <Array as="points">
              <mxPoint x="460" y="180" />
              <mxPoint x="210" y="180" />
            </Array>
          </mxGeometry>
        </mxCell>
        <mxCell id="Mvcqlc6Q-T56LPLJn-04-9" style="edgeStyle=orthogonalEdgeStyle;rounded=0;orthogonalLoop=1;jettySize=auto;html=1;" parent="1" source="Mvcqlc6Q-T56LPLJn-04-4" target="Mvcqlc6Q-T56LPLJn-04-6" edge="1">
          <mxGeometry relative="1" as="geometry">
            <Array as="points">
              <mxPoint x="460" y="180" />
              <mxPoint x="310" y="180" />
            </Array>
          </mxGeometry>
        </mxCell>
        <mxCell id="Mvcqlc6Q-T56LPLJn-04-10" style="edgeStyle=orthogonalEdgeStyle;rounded=0;orthogonalLoop=1;jettySize=auto;html=1;" parent="1" source="Mvcqlc6Q-T56LPLJn-04-4" target="Mvcqlc6Q-T56LPLJn-04-7" edge="1">
          <mxGeometry relative="1" as="geometry">
            <Array as="points">
              <mxPoint x="460" y="180" />
              <mxPoint x="410" y="180" />
            </Array>
          </mxGeometry>
        </mxCell>
        <mxCell id="Mvcqlc6Q-T56LPLJn-04-38" style="edgeStyle=orthogonalEdgeStyle;rounded=0;orthogonalLoop=1;jettySize=auto;html=1;" parent="1" source="Mvcqlc6Q-T56LPLJn-04-4" edge="1">
          <mxGeometry relative="1" as="geometry">
            <mxPoint x="360" y="180" as="sourcePoint" />
            <mxPoint x="500" y="70" as="targetPoint" />
            <Array as="points">
              <mxPoint x="310" y="180" />
              <mxPoint x="501" y="180" />
            </Array>
          </mxGeometry>
        </mxCell>
        <mxCell id="Mvcqlc6Q-T56LPLJn-04-39" style="edgeStyle=orthogonalEdgeStyle;rounded=0;orthogonalLoop=1;jettySize=auto;html=1;" parent="1" source="Mvcqlc6Q-T56LPLJn-04-4" target="Mvcqlc6Q-T56LPLJn-04-36" edge="1">
          <mxGeometry relative="1" as="geometry">
            <Array as="points">
              <mxPoint x="460" y="180" />
              <mxPoint x="610" y="180" />
            </Array>
          </mxGeometry>
        </mxCell>
        <mxCell id="Mvcqlc6Q-T56LPLJn-04-40" style="edgeStyle=orthogonalEdgeStyle;rounded=0;orthogonalLoop=1;jettySize=auto;html=1;" parent="1" source="Mvcqlc6Q-T56LPLJn-04-4" target="Mvcqlc6Q-T56LPLJn-04-37" edge="1">
          <mxGeometry relative="1" as="geometry">
            <Array as="points">
              <mxPoint x="460" y="180" />
              <mxPoint x="710" y="180" />
            </Array>
          </mxGeometry>
        </mxCell>
        <mxCell id="Mvcqlc6Q-T56LPLJn-04-4" value="Raspberry Pi" style="rounded=0;whiteSpace=wrap;html=1;" parent="1" vertex="1">
          <mxGeometry x="400" y="210" width="120" height="60" as="geometry" />
        </mxCell>
        <mxCell id="Mvcqlc6Q-T56LPLJn-04-5" value="ESC" style="whiteSpace=wrap;html=1;" parent="1" vertex="1">
          <mxGeometry x="180" y="60" width="60" height="60" as="geometry" />
        </mxCell>
        <mxCell id="Mvcqlc6Q-T56LPLJn-04-6" value="ESC" style="whiteSpace=wrap;html=1;" parent="1" vertex="1">
          <mxGeometry x="280" y="60" width="60" height="60" as="geometry" />
        </mxCell>
        <mxCell id="Mvcqlc6Q-T56LPLJn-04-7" value="ESC" style="whiteSpace=wrap;html=1;" parent="1" vertex="1">
          <mxGeometry x="380" y="60" width="60" height="60" as="geometry" />
        </mxCell>
        <mxCell id="Mvcqlc6Q-T56LPLJn-04-12" style="edgeStyle=orthogonalEdgeStyle;rounded=0;orthogonalLoop=1;jettySize=auto;html=1;" parent="1" source="Mvcqlc6Q-T56LPLJn-04-11" target="Mvcqlc6Q-T56LPLJn-04-4" edge="1">
          <mxGeometry relative="1" as="geometry" />
        </mxCell>
        <mxCell id="Mvcqlc6Q-T56LPLJn-04-11" value="Jetson Nano" style="whiteSpace=wrap;html=1;" parent="1" vertex="1">
          <mxGeometry x="620" y="210" width="120" height="60" as="geometry" />
        </mxCell>
        <mxCell id="Mvcqlc6Q-T56LPLJn-04-14" style="edgeStyle=orthogonalEdgeStyle;rounded=0;orthogonalLoop=1;jettySize=auto;html=1;" parent="1" source="Mvcqlc6Q-T56LPLJn-04-13" edge="1">
          <mxGeometry relative="1" as="geometry">
            <mxPoint x="400" y="240" as="targetPoint" />
            <Array as="points">
              <mxPoint x="350" y="240" />
              <mxPoint x="350" y="240" />
            </Array>
          </mxGeometry>
        </mxCell>
        <mxCell id="Mvcqlc6Q-T56LPLJn-04-13" value="Pixhawk" style="whiteSpace=wrap;html=1;" parent="1" vertex="1">
          <mxGeometry x="180" y="210" width="120" height="60" as="geometry" />
        </mxCell>
        <mxCell id="Mvcqlc6Q-T56LPLJn-04-35" value="ESC" style="whiteSpace=wrap;html=1;fillColor=#f8cecc;strokeColor=#b85450;" parent="1" vertex="1">
          <mxGeometry x="480" y="60" width="60" height="60" as="geometry" />
        </mxCell>
        <mxCell id="Mvcqlc6Q-T56LPLJn-04-36" value="ESC" style="whiteSpace=wrap;html=1;fillColor=#f8cecc;strokeColor=#b85450;" parent="1" vertex="1">
          <mxGeometry x="580" y="60" width="60" height="60" as="geometry" />
        </mxCell>
        <mxCell id="Mvcqlc6Q-T56LPLJn-04-37" value="ESC" style="whiteSpace=wrap;html=1;fillColor=#f8cecc;strokeColor=#b85450;" parent="1" vertex="1">
          <mxGeometry x="680" y="60" width="60" height="60" as="geometry" />
        </mxCell>
        <mxCell id="Mvcqlc6Q-T56LPLJn-04-43" style="edgeStyle=orthogonalEdgeStyle;rounded=0;orthogonalLoop=1;jettySize=auto;html=1;" parent="1" source="Mvcqlc6Q-T56LPLJn-04-41" target="Mvcqlc6Q-T56LPLJn-04-4" edge="1">
          <mxGeometry relative="1" as="geometry" />
        </mxCell>
        <mxCell id="Mvcqlc6Q-T56LPLJn-04-41" value="Sensor de temperatura" style="whiteSpace=wrap;html=1;fillColor=#f8cecc;strokeColor=#b85450;" parent="1" vertex="1">
          <mxGeometry x="180" y="310" width="120" height="60" as="geometry" />
        </mxCell>
        <mxCell id="Mvcqlc6Q-T56LPLJn-04-44" style="edgeStyle=orthogonalEdgeStyle;rounded=0;orthogonalLoop=1;jettySize=auto;html=1;" parent="1" source="Mvcqlc6Q-T56LPLJn-04-42" target="Mvcqlc6Q-T56LPLJn-04-4" edge="1">
          <mxGeometry relative="1" as="geometry" />
        </mxCell>
        <mxCell id="Mvcqlc6Q-T56LPLJn-04-42" value="Sensor de pressÃ£o" style="whiteSpace=wrap;html=1;fillColor=#f8cecc;strokeColor=#b85450;" parent="1" vertex="1">
          <mxGeometry x="620" y="310" width="120" height="60" as="geometry" />
        </mxCell>
        <mxCell id="Mvcqlc6Q-T56LPLJn-04-46" style="edgeStyle=orthogonalEdgeStyle;rounded=0;orthogonalLoop=1;jettySize=auto;html=1;" parent="1" source="Mvcqlc6Q-T56LPLJn-04-45" target="Mvcqlc6Q-T56LPLJn-04-4" edge="1">
          <mxGeometry relative="1" as="geometry" />
        </mxCell>
        <mxCell id="Mvcqlc6Q-T56LPLJn-04-45" value="Sensor de vazamento" style="whiteSpace=wrap;html=1;fillColor=#f8cecc;strokeColor=#b85450;" parent="1" vertex="1">
          <mxGeometry x="180" y="420" width="120" height="60" as="geometry" />
        </mxCell>
        <mxCell id="Mvcqlc6Q-T56LPLJn-04-48" style="edgeStyle=orthogonalEdgeStyle;rounded=0;orthogonalLoop=1;jettySize=auto;html=1;" parent="1" source="Mvcqlc6Q-T56LPLJn-04-47" target="Mvcqlc6Q-T56LPLJn-04-11" edge="1">
          <mxGeometry relative="1" as="geometry" />
        </mxCell>
        <mxCell id="Mvcqlc6Q-T56LPLJn-04-47" value="Camera" style="whiteSpace=wrap;html=1;" parent="1" vertex="1">
          <mxGeometry x="840" y="210" width="120" height="60" as="geometry" />
        </mxCell>
        <mxCell id="IiWS118UpTWDEvXQcTAl-2" style="edgeStyle=orthogonalEdgeStyle;rounded=0;orthogonalLoop=1;jettySize=auto;html=1;" edge="1" parent="1" source="IiWS118UpTWDEvXQcTAl-1" target="Mvcqlc6Q-T56LPLJn-04-4">
          <mxGeometry relative="1" as="geometry" />
        </mxCell>
        <mxCell id="IiWS118UpTWDEvXQcTAl-1" value="Hidrofone" style="whiteSpace=wrap;html=1;fillColor=#f8cecc;strokeColor=#b85450;" vertex="1" parent="1">
          <mxGeometry x="620" y="420" width="120" height="60" as="geometry" />
        </mxCell>
      </root>
    </mxGraphModel>
  </diagram>
</mxfile>
